<?xml version="1.0" encoding="utf-8"?>
<!-- Generator: Adobe Illustrator 16.0.3, SVG Export Plug-In . SVG Version: 6.00 Build 0)  -->
<!DOCTYPE svg PUBLIC "-//W3C//DTD SVG 1.1//EN" "http://www.w3.org/Graphics/SVG/1.1/DTD/svg11.dtd">
<svg version="1.1" xmlns="http://www.w3.org/2000/svg" xmlns:xlink="http://www.w3.org/1999/xlink" x="0px" y="0px"
	 width="138.667px" height="101px" viewBox="0 0 138.667 101" enable-background="new 0 0 138.667 101" xml:space="preserve">
<g id="Layer_1" display="none">
	<text transform="matrix(1 0 0 1 313.3164 375.4844)" display="inline"><tspan x="0" y="0" font-family="'GalliardITCbyBT-Roman'" font-size="50" letter-spacing="-1">B</tspan><tspan x="25.85" y="0" font-family="'GalliardITCbyBT-Roman'" font-size="50">iodiversity </tspan><tspan x="0" y="39" font-family="'GalliardITCbyBT-Roman'" font-size="50">  </tspan><tspan x="21.199" y="39" font-family="'GalliardITCbyBT-Roman'" font-size="50" letter-spacing="4"> </tspan><tspan x="36.799" y="39" font-family="'GalliardITCbyBT-Roman'" font-size="50" letter-spacing="12"> </tspan><tspan x="59.898" y="39" font-family="'GalliardITCbyBT-Roman'" font-size="50" letter-spacing="-1">D</tspan><tspan x="91.947" y="39" font-family="'GalliardITCbyBT-Roman'" font-size="50">ata</tspan><tspan x="156.696" y="39" font-family="'GalliardITCbyBT-Roman'" font-size="50" letter-spacing="-3"> </tspan><tspan x="163.597" y="39" font-family="'GalliardITCbyBT-Roman'" font-size="50" letter-spacing="-1">J</tspan><tspan x="180.846" y="39" font-family="'GalliardITCbyBT-Roman'" font-size="50">ournal</tspan></text>
	<g display="inline">
		<g>
			<rect x="246.923" y="347.582" width="46.44" height="75.032"/>
			<polygon points="253.921,426.043 253.921,432.711 304.262,432.711 304.262,355.227 296.745,355.227 296.652,426.043 			"/>
		</g>
		<path fill="#0D9F49" d="M235.976,356.079v59.72h30.693c10.208,0,19.255-9.148,19.255-21.958v-36.875
			c0-8.952,1.295-18.405,9.398-23.539c-6.068,0-37.198,0-37.198,0C241.345,333.427,235.976,347.131,235.976,356.079z"/>
		<g>
			<g>
				<path fill="#FAED20" d="M267.901,355.938c5.617,0,10.453-3.337,12.631-8.139l0,0l0.13-0.286l-0.131-0.284
					c-2.177-4.801-7.012-8.138-12.629-8.138l0,0c-5.615,0-10.451,3.337-12.631,8.138l0,0l-0.131,0.284l0.131,0.286
					C257.45,352.602,262.286,355.938,267.901,355.938L267.901,355.938"/>
				<path fill="#FFFFFF" d="M267.901,354.563c-4.947,0-9.219-2.876-11.246-7.049l0,0c2.027-4.17,6.299-7.046,11.246-7.046l0,0
					c4.95,0,9.218,2.876,11.244,7.046l0,0C277.12,351.687,272.851,354.563,267.901,354.563L267.901,354.563"/>
			</g>
			<circle fill="#0B57A3" cx="267.901" cy="347.514" r="6.998"/>
		</g>
	</g>
</g>
<g id="Layer_1_copy">
	<g>
		<g>
			<g>
				<path fill="#FAED20" d="M69.375,21.454c19.275,0.002,35.868,11.457,43.347,27.933l0,0l0.441,0.978l-0.445,0.979
					C105.244,67.812,88.65,79.269,69.375,79.27l0,0c-19.269-0.001-35.867-11.458-43.35-27.927l0,0l-0.445-0.979l0.445-0.978
					C33.509,32.911,50.106,21.456,69.375,21.454L69.375,21.454"/>
				<path fill="#FFFFFF" d="M69.375,26.177c-16.978,0-31.636,9.868-38.59,24.188l0,0c6.955,14.313,21.612,24.184,38.59,24.184l0,0
					c16.984,0,31.636-9.871,38.589-24.184l0,0C101.011,36.045,86.36,26.177,69.375,26.177L69.375,26.177"/>
			</g>
			<path fill="#0B57A3" d="M45.36,50.364c0-13.267,10.752-24.01,24.015-24.01c13.261,0,24.013,10.743,24.013,24.01
				c0,13.261-10.752,24.012-24.013,24.012C56.112,74.376,45.36,63.625,45.36,50.364z"/>
		</g>
		
			<linearGradient id="SVGID_1_" gradientUnits="userSpaceOnUse" x1="111.5708" y1="726.4443" x2="111.5708" y2="605.6893" gradientTransform="matrix(0 1 -1 0 739.6367 -80.2148)">
			<stop  offset="0" style="stop-color:#8DC63F"/>
			<stop  offset="0.2524" style="stop-color:#69A13D"/>
			<stop  offset="0.7942" style="stop-color:#0A5E2F"/>
			<stop  offset="1" style="stop-color:#004928"/>
		</linearGradient>
		<path fill="url(#SVGID_1_)" d="M30.249,41.935c8.593-12.385,22.914-20.479,39.126-20.48c19.275,0.002,35.868,11.457,43.347,27.933
			l0.253,0.563c0.029,0.135,0.059,0.271,0.083,0.406c-1.593,4.25-4.552,8.407-4.552,8.407l25.948,0.004V32.374
			c0,0-3.316,3.063-7.18,4.947c-0.832-0.946-1.167-1.835-2.081-2.851c-5.715-7.73-12.147-14.632-20.106-19.861
			C94.472,7.633,82.124,3.945,69.373,3.944C56.629,3.945,44.282,7.633,33.666,14.609c-10.262,6.742-18.379,16.203-23.479,27.325
			H30.249z"/>
		
			<linearGradient id="SVGID_2_" gradientUnits="userSpaceOnUse" x1="149.5439" y1="613.1992" x2="149.5439" y2="735.4701" gradientTransform="matrix(0 1 -1 0 739.6367 -80.2148)">
			<stop  offset="0" style="stop-color:#8DC63F"/>
			<stop  offset="0.2524" style="stop-color:#69A13D"/>
			<stop  offset="0.7942" style="stop-color:#0A5E2F"/>
			<stop  offset="1" style="stop-color:#004928"/>
		</linearGradient>
		<path fill="url(#SVGID_2_)" d="M108.461,58.75c-8.593,12.383-22.913,20.476-39.118,20.478C50.069,79.226,33.475,67.77,25.997,51.3
			l-0.254-0.563c-0.029-0.135-0.058-0.271-0.083-0.403c1.721-4.323,4.563-8.409,4.563-8.409L4.264,41.921v26.386
			c0,0,3.316-3.063,7.18-4.946c0.832,0.945,1.167,1.836,2.08,2.851c5.716,7.728,12.148,14.631,20.107,19.86
			c10.616,6.977,22.965,10.666,35.714,10.667c12.737-0.001,25.085-3.69,35.701-10.667c10.261-6.741,18.377-16.202,23.478-27.321
			H108.461z"/>
	</g>
</g>
</svg>
