<?xml version="1.0" encoding="utf-8"?>
<!-- Generator: Adobe Illustrator 16.0.3, SVG Export Plug-In . SVG Version: 6.00 Build 0)  -->
<!DOCTYPE svg PUBLIC "-//W3C//DTD SVG 1.1//EN" "http://www.w3.org/Graphics/SVG/1.1/DTD/svg11.dtd">
<svg version="1.1" id="Layer_1" xmlns="http://www.w3.org/2000/svg" xmlns:xlink="http://www.w3.org/1999/xlink" x="0px" y="0px"
	 width="183.848px" height="136.94px" viewBox="0 0 183.848 136.94" enable-background="new 0 0 183.848 136.94"
	 xml:space="preserve">
<g>
	<g>
		<path fill="#356732" d="M28.02,21.821c8.356-8.362,18.444-12.543,30.266-12.543c11.726,0,21.766,4.181,30.124,12.543
			c8.355,8.362,12.535,18.457,12.535,30.283c0,11.827-4.18,21.922-12.535,30.283C80.051,90.75,70.011,94.93,58.286,94.93
			c-11.821,0-21.909-4.181-30.266-12.543c-8.357-8.361-12.534-18.456-12.534-30.283C15.486,40.278,19.663,30.183,28.02,21.821z
			 M38.893,71.404c5.355,5.31,11.819,7.965,19.393,7.965c7.478,0,13.895-2.655,19.252-7.965c5.354-5.311,8.033-11.751,8.033-19.323
			s-2.679-14.012-8.033-19.322c-5.357-5.31-11.774-7.964-19.252-7.964c-7.573,0-14.037,2.654-19.393,7.964
			c-5.357,5.311-8.034,11.75-8.034,19.322S33.536,66.093,38.893,71.404z"/>
	</g>
	<path fill="#FFCD05" d="M171.368,52.17c0-11.815-4.182-21.923-12.541-30.324c-8.362-8.399-18.501-12.601-30.417-12.601
		c-11.826,0-21.919,4.205-30.278,12.61C89.768,30.263,85.59,40.378,85.59,52.203s4.177,21.92,12.535,30.281
		c8.355,8.361,18.442,12.54,30.264,12.54c7.85,0,14.93-1.828,21.247-5.477l-7-14.11c-4.511,2.685-9.25,4.026-14.218,4.026
		c-7.476,0-13.889-2.675-19.239-8.024c-5.354-5.35-8.028-11.763-8.028-19.236c0-7.563,2.675-14.021,8.024-19.371
		c5.35-5.349,11.758-8.025,19.229-8.025c7.561,0,14.039,2.675,19.435,8.022c5.396,5.349,8.094,11.803,8.094,19.362v11.633
		l0.038-0.019V92.57l15.391-0.008l0.007-26.608V52.17z"/>
	<g opacity="0.5">
		<path fill="#356732" d="M28.051,21.822C36.407,13.46,46.495,9.279,58.316,9.279c11.727,0,21.767,4.182,30.125,12.543
			c8.355,8.362,12.534,18.458,12.534,30.283c0,11.827-4.179,21.922-12.534,30.283c-8.358,8.362-18.398,12.543-30.125,12.543
			c-11.821,0-21.909-4.181-30.265-12.543c-8.358-8.361-12.535-18.456-12.535-30.283C15.516,40.28,19.693,30.184,28.051,21.822z
			 M38.923,71.406c5.355,5.31,11.819,7.964,19.393,7.964c7.479,0,13.895-2.654,19.252-7.964c5.355-5.312,8.034-11.752,8.034-19.324
			c0-7.571-2.679-14.013-8.034-19.322c-5.357-5.31-11.773-7.964-19.252-7.964c-7.573,0-14.037,2.654-19.393,7.964
			c-5.356,5.31-8.033,11.751-8.033,19.322C30.89,59.654,33.567,66.094,38.923,71.406z"/>
	</g>
	<g>
		<g>
			<path fill="#356732" d="M31.253,118.934c0,4.652-3.183,7.988-7.896,7.988s-7.896-3.336-7.896-7.988
				c0-4.683,3.213-8.018,7.896-8.018C28.04,110.917,31.253,114.251,31.253,118.934z M19.808,118.934c0,2.021,1.347,4.193,3.55,4.193
				c2.204,0,3.548-2.173,3.548-4.193c0-2.081-1.344-4.224-3.548-4.224C21.155,114.71,19.808,116.853,19.808,118.934z"/>
			<path fill="#356732" d="M37.557,112.783c0.979-1.162,2.57-1.866,4.161-1.866c4.254,0,6.854,3.978,6.854,7.925
				c0,4.102-2.51,8.081-6.946,8.081c-1.531,0-3.152-0.674-4.009-1.897h-0.061v9.424h-4.285v-23.042h4.285V112.783z M44.227,118.903
				c0-2.019-1.347-4.192-3.55-4.192s-3.549,2.174-3.549,4.192c0,2.021,1.346,4.225,3.549,4.225S44.227,120.923,44.227,118.903z"/>
			<path fill="#356732" d="M54.02,119.606c0,1.898,0.733,4.039,2.967,4.039c1.407,0,2.297-0.855,2.877-2.05l3.947,0.645
				c-1.04,2.999-3.672,4.683-6.824,4.683c-4.651,0-7.497-3.305-7.497-7.865s2.418-8.141,7.284-8.141c4.927,0,7.128,3.642,7.128,8.17
				v0.52H54.02z M59.864,116.944c-0.214-1.529-1.192-3.028-2.846-3.028c-1.713,0-2.662,1.469-2.878,3.028H59.864z"/>
			<path fill="#356732" d="M70.176,112.783h0.061c0.889-1.347,2.389-1.866,3.918-1.866c4.039,0,5.203,2.847,5.203,6.333v9.181
				h-4.285v-7.954c0-1.807,0.091-4.132-2.326-4.132c-2.541,0-2.57,2.847-2.57,4.649v7.437h-4.285v-15.023h4.285V112.783z"/>
			<path fill="#FFCD05" d="M104.396,126.368h-4.225v-1.378h-0.061c-0.917,1.195-2.509,1.869-4.07,1.869
				c-4.406,0-6.917-4.011-6.917-8.081c0-3.977,2.541-7.925,6.855-7.925c1.562,0,3.153,0.672,4.192,1.898v-1.407h4.225V126.368z
				 M100.6,118.839c0-2.019-1.377-4.192-3.58-4.192s-3.549,2.174-3.549,4.192c0,2.021,1.346,4.225,3.549,4.225
				S100.6,120.86,100.6,118.839z"/>
			<path fill="#FFCD05" d="M117.706,115.934c-0.918-0.919-1.837-1.47-3.151-1.47c-2.417,0-3.795,2.266-3.795,4.466
				c0,2.358,1.501,4.315,3.948,4.315c1.161,0,2.233-0.581,2.998-1.437v4.132c-1.162,0.642-2.387,0.918-3.702,0.918
				c-4.438,0-7.588-3.643-7.588-7.958c0-4.468,3.272-8.048,7.802-8.048c1.194,0,2.449,0.307,3.488,0.949V115.934z"/>
			<path fill="#FFCD05" d="M130.589,115.934c-0.919-0.919-1.836-1.47-3.153-1.47c-2.416,0-3.793,2.266-3.793,4.466
				c0,2.358,1.499,4.315,3.947,4.315c1.163,0,2.232-0.581,2.999-1.437v4.132c-1.163,0.642-2.387,0.918-3.703,0.918
				c-4.437,0-7.589-3.643-7.589-7.958c0-4.468,3.274-8.048,7.804-8.048c1.192,0,2.448,0.307,3.488,0.949V115.934z"/>
			<path fill="#FFCD05" d="M137.72,119.543c0,1.897,0.735,4.039,2.968,4.039c1.408,0,2.296-0.856,2.877-2.05l3.948,0.644
				c-1.041,2.999-3.672,4.683-6.825,4.683c-4.651,0-7.496-3.305-7.496-7.865s2.417-8.141,7.283-8.141c4.927,0,7.13,3.642,7.13,8.171
				v0.52H137.72z M143.565,116.88c-0.214-1.529-1.193-3.028-2.845-3.028c-1.714,0-2.664,1.469-2.877,3.028H143.565z"/>
			<path fill="#FFCD05" d="M156.293,114.894c-0.612-0.583-1.407-1.042-2.265-1.042c-0.704,0-1.407,0.55-1.407,1.285
				c0,1.101,1.561,1.407,3.089,2.082c1.561,0.672,3.093,1.711,3.093,4.313c0,3.336-2.693,5.326-5.847,5.326
				c-2.019,0-3.978-0.918-5.294-2.51l1.96-2.54c0.825,0.917,1.927,1.745,3.183,1.745c0.947,0,1.712-0.645,1.712-1.623
				c0-1.316-1.5-1.623-2.999-2.266c-1.498-0.642-2.999-1.529-2.999-3.947c0-2.813,1.959-4.865,4.774-4.865
				c1.593,0,3.612,0.491,4.835,1.562L156.293,114.894z"/>
			<path fill="#FFCD05" d="M168.838,114.894c-0.611-0.583-1.406-1.042-2.263-1.042c-0.706,0-1.408,0.55-1.408,1.285
				c0,1.101,1.561,1.407,3.091,2.082c1.559,0.672,3.092,1.711,3.092,4.313c0,3.336-2.693,5.326-5.846,5.326
				c-2.021,0-3.979-0.918-5.296-2.51l1.96-2.54c0.826,0.917,1.927,1.745,3.183,1.745c0.948,0,1.713-0.645,1.713-1.623
				c0-1.316-1.501-1.623-2.999-2.266c-1.499-0.642-2.999-1.529-2.999-3.947c0-2.813,1.958-4.865,4.774-4.865
				c1.592,0,3.61,0.491,4.835,1.562L168.838,114.894z"/>
		</g>
	</g>
</g>
</svg>
